<svg xmlns="http://www.w3.org/2000/svg" xmlns:svg="http://www.w3.org/2000/svg" id="svg2" width="350.578" height="174.02" version="1.1" viewBox="0 0 350.578 174.02" xml:space="preserve"><metadata id="metadata8"/><g id="g10" transform="matrix(1.25,0,0,-1.25,0,174.02)"><g id="g12"><path id="path14" d="m 74.531,133.208 -70.347,0 c -2.2,0 -3.985,-1.781 -3.985,-3.984 l 0,-6.145 c 0,-2.199 1.785,-3.984 3.985,-3.984 l 70.347,0 c 2.203,0 3.985,1.785 3.985,3.984 l 0,6.145 c 0,2.203 -1.782,3.984 -3.985,3.984 z" style="fill:#fdf5ee;fill-opacity:1;fill-rule:nonzero;stroke:#000;stroke-width:.3985;stroke-linecap:butt;stroke-linejoin:miter;stroke-miterlimit:10;stroke-dasharray:none;stroke-opacity:1"/><text id="text16" transform="matrix(1,0,0,-1,16.740999,123.38201)" style="font-variant:normal;font-weight:400;font-size:7.97009993px;font-family:FreeSans;-inkscape-font-specification:FreeSans;writing-mode:lr-tb;fill:#000;fill-opacity:1;fill-rule:nonzero;stroke:none"><tspan id="tspan18" x="0 5.651 10.959 18.427 20.419 25.983 31.291 36.328" y="0">RAW DATA</tspan></text><path id="path20" d="m 272.961,137.943 -70.348,0 c -2.203,0 -3.988,-1.786 -3.988,-3.985 l 0,-15.609 c 0,-2.203 1.785,-3.985 3.988,-3.985 l 70.348,0 c 2.199,0 3.984,1.782 3.984,3.985 l 0,15.609 c 0,2.199 -1.785,3.985 -3.984,3.985 z" style="fill:#fdf5ee;fill-opacity:1;fill-rule:nonzero;stroke:#000;stroke-width:.3985;stroke-linecap:butt;stroke-linejoin:miter;stroke-miterlimit:10;stroke-dasharray:none;stroke-opacity:1"/><path id="path22" d="m 74.531,81.978 -70.347,0 c -2.2,0 -3.985,-1.785 -3.985,-3.985 l 0,-17.07 c 0,-2.199 1.785,-3.984 3.985,-3.984 l 70.347,0 c 2.203,0 3.985,1.785 3.985,3.984 l 0,17.07 c 0,2.2 -1.782,3.985 -3.985,3.985 z" style="fill:#fdf5ee;fill-opacity:1;fill-rule:nonzero;stroke:#000;stroke-width:.3985;stroke-linecap:butt;stroke-linejoin:miter;stroke-miterlimit:10;stroke-dasharray:none;stroke-opacity:1"/><path id="path24" d="m 272.961,77.29 -70.348,0 c -2.203,0 -3.988,-1.785 -3.988,-3.984 l 0,-7.695 c 0,-2.2 1.785,-3.985 3.988,-3.985 l 70.348,0 c 2.199,0 3.984,1.785 3.984,3.985 l 0,7.695 c 0,2.199 -1.785,3.984 -3.984,3.984 z" style="fill:#fdf5ee;fill-opacity:1;fill-rule:nonzero;stroke:#000;stroke-width:.3985;stroke-linecap:butt;stroke-linejoin:miter;stroke-miterlimit:10;stroke-dasharray:none;stroke-opacity:1"/><path id="path26" d="m 74.531,20.552 -70.347,0 c -2.2,0 -3.985,-1.785 -3.985,-3.984 l 0,-7.606 c 0,-2.199 1.785,-3.984 3.985,-3.984 l 70.347,0 c 2.203,0 3.985,1.785 3.985,3.984 l 0,7.606 c 0,2.199 -1.782,3.984 -3.985,3.984 z" style="fill:#fdf5ee;fill-opacity:1;fill-rule:nonzero;stroke:#000;stroke-width:.3985;stroke-linecap:butt;stroke-linejoin:miter;stroke-miterlimit:10;stroke-dasharray:none;stroke-opacity:1"/><text id="text28" transform="matrix(1,0,0,-1,0.959726,9.888739)" style="font-variant:normal;font-weight:400;font-size:8px;font-family:FreeSans;-inkscape-font-specification:FreeSans;writing-mode:lr-tb;fill:#000;fill-opacity:1;fill-rule:nonzero;stroke:none"><tspan id="tspan30" x="0 5.336 10.392 16.064 18.288 23.96 29.016 31.016 36.688 42.96 49.08 54.944 60.272 65.328 70.392" y="0">STRICT COGNATES</tspan></text><path id="path32" d="m 272.961,25.329 -70.348,0 c -2.203,0 -3.988,-1.785 -3.988,-3.984 l 0,-17.16 c 0,-2.199 1.785,-3.985 3.988,-3.985 l 70.348,0 c 2.199,0 3.984,1.786 3.984,3.985 l 0,17.16 c 0,2.199 -1.785,3.984 -3.984,3.984 z" style="fill:#fdf5ee;fill-opacity:1;fill-rule:nonzero;stroke:#000;stroke-width:.3985;stroke-linecap:butt;stroke-linejoin:miter;stroke-miterlimit:10;stroke-dasharray:none;stroke-opacity:1"/><path id="path34" d="m 78.715,126.154 119.312,0" style="fill:none;stroke:#000;stroke-width:.3985;stroke-linecap:butt;stroke-linejoin:miter;stroke-miterlimit:10;stroke-dasharray:none;stroke-opacity:1"/><path id="path36" d="m 196.156,128.544 c 0.379,-1.433 1.223,-2.113 2.071,-2.39 -0.848,-0.282 -1.692,-0.958 -2.071,-2.391" style="fill:none;stroke:#000;stroke-width:.3985;stroke-linecap:round;stroke-linejoin:round;stroke-miterlimit:10;stroke-dasharray:none;stroke-opacity:1"/><path id="path38" d="m 237.785,114.165 0,-16.359 -198.426,0 0,-15.231" style="fill:none;stroke:#000;stroke-width:.3985;stroke-linecap:butt;stroke-linejoin:miter;stroke-miterlimit:10;stroke-dasharray:none;stroke-opacity:1"/><g id="g40" transform="matrix(0,-1,1,0,0,139.216)"><path id="path42" d="m 54.766,41.75 c 0.379,-1.438 1.222,-2.113 2.074,-2.391 -0.852,-0.281 -1.695,-0.957 -2.074,-2.39" style="fill:none;stroke:#000;stroke-width:.3985;stroke-linecap:round;stroke-linejoin:round;stroke-miterlimit:10;stroke-dasharray:none;stroke-opacity:1"/></g><path id="path44" d="m 78.715,69.458 119.312,0" style="fill:none;stroke:#000;stroke-width:.3985;stroke-linecap:butt;stroke-linejoin:miter;stroke-miterlimit:10;stroke-dasharray:none;stroke-opacity:1"/><path id="path46" d="m 196.156,71.849 c 0.379,-1.434 1.223,-2.11 2.071,-2.391 -0.848,-0.277 -1.692,-0.957 -2.071,-2.39" style="fill:none;stroke:#000;stroke-width:.3985;stroke-linecap:round;stroke-linejoin:round;stroke-miterlimit:10;stroke-dasharray:none;stroke-opacity:1"/><path id="path48" d="m 237.785,61.427 0,-20.316 -198.426,0 0,-19.961" style="fill:none;stroke:#000;stroke-width:.3985;stroke-linecap:butt;stroke-linejoin:miter;stroke-miterlimit:10;stroke-dasharray:none;stroke-opacity:1"/><g id="g50" transform="matrix(0,-1,1,0,0,139.216)"><path id="path52" d="m 116.191,41.75 c 0.379,-1.438 1.223,-2.113 2.075,-2.391 -0.852,-0.281 -1.696,-0.957 -2.075,-2.39" style="fill:none;stroke:#000;stroke-width:.3985;stroke-linecap:round;stroke-linejoin:round;stroke-miterlimit:10;stroke-dasharray:none;stroke-opacity:1"/></g><path id="path54" d="m 78.715,12.767 119.312,0" style="fill:none;stroke:#000;stroke-width:.3985;stroke-linecap:butt;stroke-linejoin:miter;stroke-miterlimit:10;stroke-dasharray:none;stroke-opacity:1"/><path id="path56" d="m 196.156,15.157 c 0.379,-1.437 1.223,-2.113 2.071,-2.39 -0.848,-0.281 -1.692,-0.957 -2.071,-2.395" style="fill:none;stroke:#000;stroke-width:.3985;stroke-linecap:round;stroke-linejoin:round;stroke-miterlimit:10;stroke-dasharray:none;stroke-opacity:1"/><text id="text58" transform="matrix(1,0,0,-1,110.57162,129.91055)" style="font-variant:normal;font-weight:400;font-size:8px;font-family:FreeSans;-inkscape-font-specification:FreeSansOblique;writing-mode:lr-tb;fill:#000;fill-opacity:1;fill-rule:nonzero;stroke:none"><tspan id="tspan60" x="0 2.44 6.736 8.656 13.032 15.552 22.08 26.44 28.56 30.336 34.656 39.072 41.296 45.656 49.896" y="0">reformating and</tspan><tspan id="tspan62" x="3.75 7.75 12.126 16.542 22.998 27.302 31.622 33.662 38.014 40.134 41.91 46.302" y="10">segmentation</tspan><tspan id="tspan64" x="-2.056 2.448 6.808 9.4 11.52 13.296 17.728 19.504 21.728 25.848 30.32 34.736 39.056 43.416 45.464" y="29.5">partial cognate</tspan><tspan id="tspan66" x="7.975 12.439 16.743 18.791 23.167 27.207 29.327 31.103 35.495" y="39.5">detection</tspan></text><text id="text68" transform="matrix(1,0,0,-1,218.3289,128.02382)" style="font-variant:normal;font-weight:400;font-size:8px;font-family:FreeSans;-inkscape-font-specification:FreeSans;writing-mode:lr-tb;fill:#000;fill-opacity:1;fill-rule:nonzero;stroke:none"><tspan id="tspan70" x="0 6.768 12.096 17.768 23.536 25.76 31.6 36.664" y="0">MACHINE-</tspan><tspan id="tspan72" x="-12.906 -7.234 -2.17 3.158 8.742 14.07 19.382 23.886 28.95 30.95 36.534 41.862 46.918" y="10">READABLE DATA</tspan><tspan id="tspan74" x="-195.288 -190.04 -184.712 -179.04 -173.984 -171.76 -166.432 -161.928" y="56.101">PARTIAL </tspan><tspan id="tspan76" x="-209.694 -204.022 -197.75 -191.63 -185.79 -180.462 -175.406 -170.342 -168.342 -163.006 -157.942 -152.862" y="66.101">COGNATE SETS</tspan><tspan id="tspan78" x="-4.624 .704 5.208 7.432 13.552 19.392 26.16 31.224 37.064 42.12" y="60.84">ALIGNMENTS</tspan></text><text id="text80" transform="matrix(1,0,0,-1,108.7261,73.007239)" style="font-variant:normal;font-weight:400;font-size:8px;font-family:FreeSans;-inkscape-font-specification:FreeSansOblique;writing-mode:lr-tb;fill:#000;fill-opacity:1;fill-rule:nonzero;stroke:none"><tspan id="tspan82" x="0 2.048 6.344 12.8 17.304 19.08 23.44 25.488 29.864 32.528 37.016 41.376 45.376 49.752" y="0">template-based</tspan><tspan id="tspan84" x="-5.695 -1.191 3.041 7.417 11.649 15.945 18.065 19.841 23.961 26.185 30.617 32.417 34.193 38.609 42.729 49.185 53.481 57.801" y="10">phonetic alignment</tspan><tspan id="tspan86" x="-18.796 -14.364 -12.588 -10.812 -6.372 -2.26 4.188 8.484 12.804 14.924 17.588 22.076 26.444 30.444 34.82 39.284 41.508 45.972 50.268 52.316 56.692 60.74 62.86 64.636 69.02" y="28.647">alignment-based detection</tspan><tspan id="tspan88" x="-20.475 -16.099 -14.019 -11.795 -7.755 -5.315 -.939 2.981 6.981 9.245 13.245 17.541 24.069 28.437 32.757 34.877 36.653 40.773 42.997 47.117 51.565 55.981 60.301 64.669 66.717 71.013" y="38.647">of cross-semantic cognates</tspan><tspan id="tspan90" x="-12.621 -8.501 -4.117 -1.525 .915 5.211 9.131 13.635 18.003 22.243 26.707 31.011 35.243 39.363 43.739 45.963 50.467 54.819 56.819 58.867 63.163 65.683" y="57.452">correspondence pattern</tspan><tspan id="tspan92" x="6.879 8.655 13.119 17.423 21.743 23.863" y="67.452">identi</tspan></text><text id="text94" transform="matrix(1,0,0,-1,134.36482,5.555239)" style="font-variant:normal;font-weight:400;font-size:8px;font-family:FreeSans;-inkscape-font-specification:FreeSansOblique;writing-mode:lr-tb;fill:#000;fill-opacity:1;fill-rule:nonzero;stroke:none"><tspan id="tspan96" x="0" y="0">ﬁ</tspan></text><text id="text98" transform="matrix(1,0,0,-1,138.13282,5.555239)" style="font-variant:normal;font-weight:400;font-size:8px;font-family:FreeSans;-inkscape-font-specification:FreeSansOblique;writing-mode:lr-tb;fill:#000;fill-opacity:1;fill-rule:nonzero;stroke:none"><tspan id="tspan100" x="0 4.12 8.488 10.608 12.384 16.768" y="0">cation</tspan></text><text id="text102" transform="matrix(1,0,0,-1,211.08321,15.241239)" style="font-variant:normal;font-weight:400;font-size:8px;font-family:FreeSans;-inkscape-font-specification:FreeSans;writing-mode:lr-tb;fill:#000;fill-opacity:1;fill-rule:nonzero;stroke:none"><tspan id="tspan104" x="0 5.672 11.944 17.616 23.288 28.352 33.688 38.936 45.208 51.048" y="0">CORRESPON-</tspan><tspan id="tspan106" x="-9.062 -3.478 1.586 7.426 13.098 18.162 20.162 25.41 30.738 35.794 40.85 45.914 51.586 57.426" y="10">DENCE PATTERNS</tspan></text></g></g></svg>